<?xml version="1.0" encoding="UTF-8"?>
<svg id="Capa_1" data-name="Capa 1" xmlns="http://www.w3.org/2000/svg" viewBox="0 0 256 256">
  <defs>
    <style>
      .cls-1 {
        fill: #302c43;
      }
    </style>
  </defs>
  <path class="cls-1" d="M41.8,32.74c.77,0,1.53,0,2.32-.01,2.56-.01,5.12,0,7.68,0,1.84,0,3.68,0,5.52-.02,4.99-.01,9.98-.01,14.98-.01,4.17,0,8.34,0,12.51,0,9.84-.01,19.68-.01,29.52,0,10.14,0,20.29,0,30.43-.03,8.72-.02,17.43-.02,26.15-.02,5.2,0,10.41,0,15.61-.01,4.89-.01,9.79-.01,14.68,0,1.79,0,3.59,0,5.38,0,2.45-.01,4.91,0,7.36.01q1.06-.01,2.13-.02c5.82.06,11.36,1.3,15.95,5.05q.67.85,1.35,1.73t1.4,1.71c2.66,4.15,3.48,7.74,3.47,12.64q0,1.71,0,3.46-.01,1.87-.02,3.77c0,1.32,0,2.63,0,3.99,0,3.61-.01,7.21-.03,10.81-.01,3.77-.01,7.54-.02,11.31,0,7.14-.02,14.27-.04,21.41-.02,8.13-.03,16.25-.04,24.38-.02,16.71-.06,33.42-.1,50.14.83-.02,1.66-.05,2.52-.07,1.09-.02,2.17-.04,3.29-.05,1.08-.02,2.16-.05,3.27-.07q2.92.2,5.92,2.2c1.57,7.21-.65,14.64-4,21-5.68,8.32-13.34,14.05-23.19,16.56-3.53.56-7,.59-10.56.58q-1.16,0-2.34,0c-2.59,0-5.17.01-7.76.01-1.86,0-3.71,0-5.57.02-5.04.01-10.08.02-15.12.02-3.15,0-6.3,0-9.46.01-9.87.01-19.73.02-29.6.03-11.38,0-22.76.02-34.14.05-8.8.02-17.61.03-26.41.03-5.25,0-10.51,0-15.76.02-4.95.02-9.89.02-14.84,0-1.81,0-3.62,0-5.43.01-13.67.07-25.42-.74-35.96-10.31-7.29-7.53-10.32-15.63-10.3-26.07q.43-2,3.43-4,2.92-.2,6.19-.12c1.09.02,2.17.04,3.29.05.83.02,1.66.05,2.52.07,0-.69,0-1.38-.01-2.09-.09-16.77-.15-33.54-.2-50.3-.02-8.11-.05-16.22-.09-24.33-.04-7.07-.07-14.14-.07-21.21,0-3.74-.02-7.48-.05-11.22-.03-4.18-.03-8.36-.03-12.55-.01-1.23-.03-2.47-.04-3.74.04-7.5.62-13.3,5.87-19.08,5.49-4.98,11.28-5.78,18.43-5.75ZM28,48c-1.02,3.07-1.12,5.15-1.12,8.37,0,1.11,0,2.22,0,3.37,0,1.23,0,2.45.01,3.71,0,1.31,0,2.62,0,3.97,0,3.54,0,7.09.01,10.63,0,3.32,0,6.65,0,9.97,0,9.72.02,19.44.03,29.17.02,21.72.04,43.44.06,65.81h202c.06-21.68.12-43.35.19-65.69.03-6.85.05-13.69.08-20.74q.01-6.13.02-12.27c0-2.73.01-5.47.03-8.2.02-4.14.02-8.28.02-12.42.01-1.22.02-2.44.03-3.69,0-1.12,0-2.23-.01-3.38,0-.97,0-1.94,0-2.94-.56-4.06-2.28-6.54-5.08-9.46-3.24-1.72-6.29-1.63-9.86-1.61-.77,0-1.53-.01-2.32-.02-2.57-.02-5.14-.01-7.71,0-1.84,0-3.69-.02-5.53-.03-5.01-.02-10.02-.03-15.02-.02-4.18,0-8.36,0-12.54-.02-9.86-.02-19.72-.02-29.58-.02-10.17,0-20.35-.02-30.52-.05-8.73-.03-17.47-.04-26.2-.04-5.22,0-10.43,0-15.65-.03-4.91-.02-9.81-.02-14.72,0-1.8,0-3.6,0-5.4-.02-2.46-.02-4.92,0-7.38.01-.71-.01-1.42-.03-2.16-.04-5.59.1-7.92,1.79-11.68,5.66ZM13,193c1.62,8.09,6.3,13.38,13,18,4.69,1.91,8.95,2.29,13.95,2.27.78,0,1.57,0,2.37.01,2.61.01,5.23.01,7.84,0,1.88,0,3.76.01,5.63.02,5.1.02,10.19.02,15.29.02,3.19,0,6.37,0,9.56.01,11.12.02,22.23.03,33.35.03,10.35,0,20.71.02,31.06.05,8.9.03,17.79.04,26.69.04,5.31,0,10.62,0,15.93.03,5,.02,9.99.02,14.99,0,1.83,0,3.66,0,5.49.01,10.21.06,18.52-.09,27.15-6.11.52-.52,1.04-1.04,1.57-1.58.53-.51,1.07-1.02,1.62-1.54q2.24-3.16,4.51-11.27H13Z"/>
  <path class="cls-1" d="M143.56,63.19q2.44.81,4.44,2.81c-.37,5.52-1.98,10.51-3.73,15.73q-.42,1.27-.84,2.56c-.92,2.77-1.84,5.55-2.76,8.32-.64,1.93-1.28,3.87-1.92,5.8-1.34,4.04-2.69,8.08-4.04,12.12-1.73,5.18-3.45,10.37-5.16,15.55-1.32,3.99-2.65,7.98-3.98,11.96-.64,1.91-1.27,3.82-1.9,5.74-.88,2.67-1.77,5.33-2.67,8-.26.79-.52,1.58-.78,2.4-1.23,3.63-2.18,6.39-5.2,8.82-3.34-.24-4.61-.61-7-3,.37-5.52,1.98-10.51,3.73-15.73.28-.84.56-1.69.84-2.56.92-2.77,1.84-5.55,2.76-8.32.64-1.93,1.28-3.87,1.92-5.8,1.34-4.04,2.69-8.08,4.04-12.12,1.73-5.18,3.45-10.37,5.16-15.55,1.32-3.99,2.65-7.98,3.98-11.96.64-1.91,1.27-3.82,1.9-5.74.88-2.67,1.77-5.33,2.67-8,.26-.79.52-1.58.78-2.4q3.05-8.97,7.77-8.63Z"/>
  <path class="cls-1" d="M174.23,77.96c4.23,1.59,6.88,4.54,10.04,7.71q1.02,1.01,2.06,2.04c1.43,1.42,2.86,2.85,4.29,4.28,2.18,2.19,4.39,4.35,6.6,6.51,1.39,1.39,2.78,2.78,4.17,4.17q.99.97,2.01,1.95c2.7,2.76,4.39,4.62,5.42,8.38-1.26,4.57-4.09,7.08-7.43,10.33-.68.68-1.35,1.35-2.05,2.05-1.43,1.43-2.87,2.85-4.32,4.26-2.21,2.16-4.39,4.35-6.57,6.54-1.39,1.38-2.79,2.77-4.19,4.15-.65.65-1.3,1.31-1.98,1.98-2.63,2.55-4.61,4.43-8.06,5.73q-2.23-.04-5.23-2.04-.54-2.73,0-6c1.84-2.36,3.54-4.24,5.69-6.27.58-.57,1.15-1.14,1.75-1.72,1.84-1.81,3.7-3.59,5.56-5.38,1.25-1.22,2.51-2.45,3.76-3.68,3.07-3,6.15-5.98,9.24-8.95-1.58-3.99-4.39-6.54-7.45-9.43-1.09-1.05-2.18-2.11-3.26-3.16-1.71-1.65-3.42-3.29-5.15-4.92-1.67-1.58-3.32-3.19-4.96-4.79-.52-.48-1.04-.96-1.57-1.46-2.51-2.48-3.56-3.94-4.12-7.47.17-.91.34-1.83.51-2.77q3-2,5.23-2.04Z"/>
  <path class="cls-1" d="M86,79q1,1,1.42,3.67c-.57,4.53-2.93,6.6-6.11,9.6-.58.57-1.15,1.14-1.75,1.72-1.84,1.81-3.7,3.59-5.56,5.38-1.25,1.22-2.51,2.45-3.76,3.68-3.07,3-6.15,5.98-9.24,8.95,1.58,3.99,4.39,6.54,7.45,9.43,1.09,1.05,2.18,2.11,3.26,3.16,1.71,1.65,3.42,3.29,5.15,4.92,1.67,1.58,3.32,3.19,4.96,4.79.52.48,1.04.96,1.57,1.46,2.51,2.48,3.56,3.94,4.12,7.47-.17.91-.34,1.83-.51,2.77q-3,2-5.23,2.04c-4.23-1.59-6.88-4.54-10.04-7.71-.68-.67-1.36-1.34-2.06-2.04-1.43-1.42-2.86-2.85-4.29-4.28-2.18-2.19-4.39-4.35-6.6-6.51-1.39-1.39-2.78-2.78-4.17-4.17-.66-.64-1.32-1.29-2.01-1.95-2.7-2.76-4.39-4.62-5.43-8.38,1.27-4.59,4.16-7.09,7.54-10.33.68-.68,1.37-1.35,2.07-2.05,2.18-2.16,4.39-4.29,6.59-6.43,1.48-1.46,2.95-2.91,4.43-4.37,2.7-2.66,5.4-5.31,8.12-7.95.55-.53,1.09-1.06,1.66-1.61,2.98-2.64,4.7-2.21,8.42-1.26Z"/>
</svg>